<?xml version="1.0" encoding="utf-8"?>
<!-- Generator: Adobe Illustrator 21.0.0, SVG Export Plug-In . SVG Version: 6.00 Build 0)  -->
<svg version="1.1"
	 id="svg2" xmlns:cc="http://creativecommons.org/ns#" xmlns:dc="http://purl.org/dc/elements/1.1/" xmlns:rdf="http://www.w3.org/1999/02/22-rdf-syntax-ns#" xmlns:svg="http://www.w3.org/2000/svg"
	 xmlns="http://www.w3.org/2000/svg" xmlns:xlink="http://www.w3.org/1999/xlink" x="0px" y="0px" viewBox="0 0 296 75.9"
	 style="enable-background:new 0 0 296 75.9;" xml:space="preserve">
<style type="text/css">
	.st0{fill:#336699;}
	.st1{clip-path:url(#SVGID_2_);}
	.st2{fill:#1C3664;}
</style>
<g id="layer1" transform="translate(-428.71429,-460.51587)">
	<g id="g2993" transform="matrix(1.3703704,0,0,-1.3703704,430.71429,538.48235)">
		<g id="g2995" transform="translate(165.274,21.91)">
			<path id="path2997" class="st0" d="M-1.5,1.5C-2.2,1-3,0.6-3.8,0.3c-1.1-0.4-2.1-0.7-3.1-0.7c-1.5,0-2.6,0.2-3.4,0.7
				c-0.8,0.4-1.2,1.2-1.2,2.2c0,1.2,0.3,2.2,0.9,2.9C-10,6.1-9.1,6.6-8,7.1C-7,7.4-5.6,7.7-4.1,8c1.4,0.2,4,0.5,4.4,0.5
				c0.3,0,0.6,0.2,0.4-0.7c-0.1-0.4-0.8-3.6-1.2-5C-0.6,2.3-1.2,1.6-1.5,1.5z M9.1,23.8c-2.3,1.3-5.8,1.9-10.6,1.9
				c-2.4,0-4.8-0.2-7.2-0.6c-1.8-0.3-2-0.3-3.1-0.6c-2.3-0.5-2.6-2.8-2.6-2.8l-0.7-3c-0.4-1.9,0.7-1.8,1.2-1.7
				c1,0.3,1.5,0.6,3.5,1.1c1.9,0.4,4,0.8,5.6,0.8c2.4,0,4.2-0.3,5.4-0.8c1.2-0.5,1.8-1.4,1.8-2.7c0-0.3,0-0.6-0.1-0.8
				c-0.1-0.2-0.3-0.5-0.9-0.5c-3.4-0.2-5.8-0.5-8.8-0.9c-2.9-0.4-5.4-1.1-7.6-2.1c-2.3-1-3.9-2.3-5.1-4c-1.1-1.7-1.7-3.8-1.7-6.2
				c0-2.3,0.8-4.2,2.4-5.6c1.6-1.4,3.7-2.2,6.3-2.2c1.6,0,2.8,0.1,3.7,0.3c0.9,0.2,1.8,0.5,2.9,1C-5.7-5.3-4.9-4.8-4-4.3
				c0.9,0.6,1.5,1,2.2,1.5l0,0l-0.2-1c0,0,0,0,0,0l0,0C-2.2-5-1.5-5.9-0.4-6l0,0h0.1l0,0c0.8,0,3.4,0,4.6,0h0.8c0.1,0,0.1,0,0.1,0
				c1.2,0.1,2.3,1.1,2.5,2.2L12.1,15c0.1,0.4,0.2,0.9,0.2,1.5c0.1,0.6,0.1,1.1,0.1,1.4C12.5,20.6,11.3,22.5,9.1,23.8"/>
		</g>
		<g id="g2999">
			<g>
				<defs>
					<rect id="SVGID_1_" x="-41.5" y="-8.7" width="296" height="75.9"/>
				</defs>
				<clipPath id="SVGID_2_">
					<use xlink:href="#SVGID_1_"  style="overflow:visible;"/>
				</clipPath>
				<g id="g3001" class="st1">
					<g id="g3007" transform="translate(101.082,45.728)">
						<path id="path3009" class="st2" d="M-1.5,1.5c-1.3,0-2.9-1-3.7-2.3c0,0-8.5-14.6-9.4-16.1c-0.5-0.8-0.9-0.3-1,0
							c-0.1,0.4-2.6,16-2.6,16c-0.3,1.3-1.6,2.3-3.2,2.3l-5.3,0c-1.3,0-2.1-1-1.8-2.3c0,0,4.1-23,4.9-28.4c0.4-3,0-3.5,0-3.5L-29-42
							c-0.8-1.2-0.3-2.3,0.9-2.3l6.2,0c1.3,0,3,1,3.7,2.3L5.5-1.9c0,0,2.3,3.4,0.2,3.4C4.3,1.4-1.5,1.5-1.5,1.5"/>
					</g>
					<g id="g3011" transform="translate(39.137,49.474)">
						<path id="path3013" class="st2" d="M-1.5,1.5C-2.2,2.9-3.3,4.1-4.7,5c-1.5,0.9-3.2,1.5-5.2,1.9c-2,0.4-4.3,0.5-7,0.6l-12.4,0
							c-1.3,0-2.6-1-2.9-2.3l-8.4-36.4c-0.3-1.2,0.5-2.3,1.8-2.3h5.9c1.3,0,2.6,1,2.8,2.3l2,8.8c0.3,1.2,1.5,2.3,2.8,2.3h1.7
							c7.3,0,12.9,1.5,17,4.5c4,3,6.1,6.9,6.1,11.8C-0.3-1.8-0.7,0-1.5,1.5 M-14.3-10.4c-1.8-1.3-4.3-2-7.5-2h-1.5
							c-1.3,0-2.1,1-1.8,2.3l1.8,7.7c0.3,1.2,1.6,2.3,2.8,2.3l1.9,0c2.3,0,4-0.4,5.2-1.2c1.1-0.8,1.7-1.9,1.7-3.5
							C-11.6-7.3-12.5-9.1-14.3-10.4"/>
					</g>
				</g>
			</g>
		</g>
		<g id="g3015" transform="translate(147.108,49.341)">
			<path id="path3017" class="st0" d="M-1.5,1.5C-2.2,2.9-3.3,4.1-4.7,5c-1.5,0.9-3.2,1.5-5.2,1.9c-2,0.3-4.3,0.5-7,0.6l-12.4,0
				c-1.3,0-2.5-1-2.8-2.3l-8.4-36.4c-0.3-1.2,0.5-2.3,1.8-2.3l6,0c1.3,0,2.6,1,2.9,2.2l2,8.8c0.3,1.2,1.6,2.3,2.9,2.3h1.7
				c7.3,0,12.9,1.5,17,4.5c4,3,6.1,6.9,6.1,11.8C-0.3-1.8-0.7,0-1.5,1.5 M-14.3-10.4c-1.8-1.3-4.3-1.9-7.5-1.9h-1.5
				c-1.3,0-2.1,1-1.8,2.3l1.8,7.7c0.3,1.2,1.6,2.3,2.8,2.3l2,0c2.3,0,4-0.4,5.2-1.2c1.2-0.8,1.7-2,1.7-3.5
				C-11.6-7.3-12.5-9.1-14.3-10.4"/>
		</g>
		<g id="g3019" transform="translate(57.28,21.938)">
			<path id="path3021" class="st2" d="M-1.5,1.5C-2.2,1-3,0.6-3.8,0.3c-1.1-0.4-2.1-0.7-3.1-0.7c-1.5,0-2.6,0.2-3.4,0.7
				c-0.8,0.4-1.2,1.2-1.2,2.2c0,1.2,0.3,2.2,0.9,2.9C-10,6.1-9.1,6.6-8,7.1C-7,7.4-5.6,7.7-4.1,8c1.4,0.2,4,0.5,4.4,0.5
				c0.3,0,0.6,0.2,0.4-0.7c-0.1-0.4-0.8-3.6-1.2-5C-0.6,2.3-1.2,1.6-1.5,1.5z M9.1,23.8c-2.3,1.3-5.8,1.9-10.6,1.9
				c-2.4,0-4.8-0.2-7.2-0.6c-1.8-0.3-2-0.3-3.1-0.6c-2.3-0.5-2.6-2.8-2.6-2.8l-0.7-3c-0.4-1.9,0.7-1.8,1.2-1.7
				c1,0.3,1.5,0.6,3.5,1.1c1.9,0.4,4,0.8,5.6,0.8c2.4,0,4.2-0.3,5.4-0.8c1.2-0.5,1.8-1.4,1.8-2.7c0-0.3,0-0.6-0.1-0.8
				c-0.1-0.2-0.3-0.5-0.9-0.5c-3.4-0.2-5.8-0.5-8.8-0.9c-2.9-0.4-5.4-1.1-7.6-2.1c-2.3-1-3.9-2.3-5.1-4c-1.1-1.7-1.7-3.8-1.7-6.2
				c0-2.3,0.8-4.2,2.4-5.6c1.6-1.4,3.7-2.2,6.3-2.2c1.6,0,2.8,0.1,3.7,0.3c0.9,0.2,1.8,0.5,2.9,1C-5.7-5.3-4.9-4.8-4-4.3
				c0.9,0.6,1.5,1,2.2,1.5l0,0l-0.2-1c0,0,0,0,0,0l0,0C-2.2-5-1.5-5.9-0.4-6l0,0h0.1l0,0c0.8,0,3.4,0,4.6,0h0.8c0.1,0,0.1,0,0.1,0
				c1.2,0.1,2.3,1.1,2.5,2.2L12.1,15c0.1,0.4,0.2,0.9,0.2,1.5c0.1,0.6,0.1,1.1,0.1,1.4C12.5,20.6,11.3,22.5,9.1,23.8"/>
		</g>
		<g id="g3023" transform="translate(196.3,54.997)">
			<path id="path3025" class="st0" d="M-1.5,1.5h-5.3c0,0,0,0,0,0l0,0c-1.2,0-2.5-0.9-2.8-2.1c0,0,0-0.1,0-0.1c0,0-0.1-0.6-0.3-1.6
				l-7.3-33.1c-0.2-0.7-0.3-1.2-0.3-1.4l0,0c-0.3-1.2,0.4-2.1,1.6-2.2l0,0h5.5c1.2,0,2.4,0.9,2.8,2.1c0,0.1,0,0.1,0.1,0.2l8,36.1
				l0,0C0.6,0.4-0.2,1.5-1.5,1.5"/>
		</g>
		<g id="g3027" transform="translate(206.375,47.652)">
			<path id="path3029" class="st0" d="M-1.5,1.5c-0.2,0-0.4-0.1-0.6-0.1c-0.2,0-0.4,0-0.6,0c-0.6,0-1,0.2-1.3,0.5
				c-0.3,0.3-0.5,0.8-0.5,1.5v3.1h-0.7v0.8h0.7v1.7h1V7.2h2V6.4h-2V3.7c0-0.3,0-0.5,0-0.7c0-0.2,0.1-0.3,0.1-0.5
				C-3.2,2.4-3.1,2.3-3,2.2c0.1-0.1,0.3-0.1,0.6-0.1c0.2,0,0.3,0,0.5,0.1c0.2,0,0.3,0.1,0.4,0.1l0.1,0V1.5"/>
		</g>
		<g id="g3031" transform="translate(216,47.601)">
			<path id="path3033" class="st0" d="M-1.5,1.5h-1v3.3c0,0.2,0,0.5,0,0.7c0,0.2-0.1,0.4-0.1,0.6C-2.7,6.2-2.8,6.3-3,6.4
				c-0.1,0.1-0.4,0.1-0.6,0.1c-0.3,0-0.5-0.1-0.8-0.2C-4.7,6.1-5,6-5.2,5.8c0-0.1,0-0.2,0-0.3c0-0.1,0-0.2,0-0.3V1.5h-1v3.3
				c0,0.3,0,0.5,0,0.7S-6.3,5.9-6.3,6c-0.1,0.1-0.2,0.3-0.3,0.3c-0.1,0.1-0.4,0.1-0.6,0.1c-0.3,0-0.5-0.1-0.8-0.2
				C-8.4,6.2-8.7,6-8.9,5.8V1.5h-1v5.8h1V6.6C-8.6,6.9-8.3,7.1-8,7.2c0.3,0.1,0.6,0.2,1,0.2c0.4,0,0.7-0.1,1-0.2
				C-5.8,7-5.6,6.8-5.4,6.5C-5,6.8-4.7,7-4.4,7.2c0.3,0.1,0.7,0.2,1,0.2c0.6,0,1.1-0.2,1.4-0.6c0.3-0.4,0.5-0.9,0.5-1.6V1.5"/>
		</g>
	</g>
</g>
</svg>
