<?xml version="1.0" encoding="utf-8"?>
<!-- Generator: Adobe Illustrator 22.1.0, SVG Export Plug-In . SVG Version: 6.00 Build 0)  -->
<svg version="1.1" id="Layer_1" xmlns="http://www.w3.org/2000/svg" xmlns:xlink="http://www.w3.org/1999/xlink" x="0px" y="0px"
	 viewBox="0 0 185 50.9" style="enable-background:new 0 0 185 50.9;" xml:space="preserve">
<g>
	<path style="fill-rule:evenodd;clip-rule:evenodd;fill:#F47521;" d="M25.4,0C11.3,0,0,11.3,0,25.4c0,14.1,11.3,25.5,25.4,25.5
		c14.1,0,25.5-11.5,25.5-25.5C50.9,11.3,39.5,0,25.4,0L25.4,0z M11.7,11.2c0-4.5,3.6-10.6,10.5,1.2c1.2,2.1,2.9,5,2.9,5
		c-0.7,0.1-1.3,0.6-1.9,1.6L20,24.5l0,0l-5.5,9.3c0,0-2.3,3.7-2.7,7.5C11.6,39.1,11.7,11.2,11.7,11.2L11.7,11.2z M19.9,44.1
		c-3.9,2.3-11,2.3-4.2-9.7c1.2-2,2.9-5,2.9-5c0.5,0.6,1.2,1,2.3,1h6.3l0,0H38c0,0,4.3,0.1,7.8-1.3C44.3,30.3,19.9,44.1,19.9,44.1
		L19.9,44.1z M38,29c-2.4,0-5.7,0-5.7,0c0.2-0.6,0.1-1.4-0.4-2.4l-3.2-5.4l0,0l-5.4-9.4c0,0-2-3.8-5-6.1c1.9,0.7,26,14.8,26,14.8
		C48.3,22.9,51.8,28.9,38,29L38,29z"/>
	<path style="fill-rule:evenodd;clip-rule:evenodd;fill:#0D4D8C;" d="M76.2,11.9c0-3.6,0.4-4.1,6.4-4.1c6.7,0,10.7,3,10.7,8.9
		c0,7.8-6.9,8.8-14,8.8h-3.2V11.9L76.2,11.9z M69.8,45.8h6.4V27.9h3.5c9.1,0,21.1-0.7,21.1-11.1c0-10.5-11.3-11.3-20.4-11.3H62.3
		v1.1c6.4,0.7,7.5,1.7,7.5,5.4V45.8L69.8,45.8z"/>
	<path style="fill-rule:evenodd;clip-rule:evenodd;fill:#0D4D8C;" d="M107.7,12.6c0-4.9-1.1-5.2-7.5-6.1V5.5h15l23.5,32.8h0.1V5.5
		h3.9v40.3H137l-25.3-35.1h-0.1v35.1h-3.9V12.6L107.7,12.6z"/>
	<path style="fill-rule:evenodd;clip-rule:evenodd;fill:#0D4D8C;" d="M185,44.7c-3.6,1-7,1.7-14.1,1.7c-14.1,0-21.7-9.9-21.7-22.1
		c0-10.9,4.5-19.4,19.9-19.4c11.3,0,15.4,4.8,15.9,8.8h-7.3c-0.4-1.9-1.7-6.1-9.1-6.1c-8,0-12.2,6-12.2,15.1c0,8.5,2.1,21,18.6,21
		c4.4,0,9.1-1.3,9.9-1.6V44.7L185,44.7z"/>
</g>
<g>
	<g>
		<g>
			<path style="fill:#F47521;" d="M45.5,46.6c0.2,0,0.5-0.1,0.8-0.1c0.5,0,0.8,0.1,1,0.3c0.2,0.1,0.3,0.4,0.3,0.6
				c0,0.4-0.3,0.7-0.6,0.8v0c0.3,0.1,0.4,0.3,0.5,0.7c0.1,0.5,0.2,0.8,0.3,0.9h-0.4c-0.1-0.1-0.1-0.4-0.2-0.8
				c-0.1-0.5-0.3-0.6-0.7-0.6h-0.4v1.4h-0.4V46.6z M45.9,48.1h0.4c0.5,0,0.7-0.2,0.7-0.6c0-0.4-0.3-0.6-0.8-0.6c-0.2,0-0.4,0-0.4,0
				V48.1z"/>
		</g>
	</g>
	<path style="fill:#F47521;" d="M43.7,48.2c0-1.5,1.2-2.7,2.7-2.7l0,0c1.5,0,2.8,1.2,2.8,2.7l0,0c0,1.5-1.2,2.8-2.8,2.8l0,0
		C45,50.9,43.7,49.7,43.7,48.2L43.7,48.2z M44.1,48.2c0,1.3,1,2.3,2.3,2.3l0,0c1.3,0,2.3-1,2.3-2.3l0,0c0-1.3-1-2.3-2.3-2.3l0,0
		C45.2,45.8,44.2,46.9,44.1,48.2L44.1,48.2z"/>
</g>
</svg>
