<?xml version="1.0" encoding="utf-8"?>
<!-- Generator: Adobe Illustrator 22.1.0, SVG Export Plug-In . SVG Version: 6.00 Build 0)  -->
<svg version="1.1" id="Layer_1" xmlns="http://www.w3.org/2000/svg" xmlns:xlink="http://www.w3.org/1999/xlink" x="0px" y="0px"
	 viewBox="0 0 181.3 45.4" style="enable-background:new 0 0 181.3 45.4;" xml:space="preserve">
<polygon style="fill-rule:evenodd;clip-rule:evenodd;fill:#DC4756;" points="0,0 0,35.2 29.8,45.4 59.7,35.2 59.7,0 0,0 "/>
<path style="fill-rule:evenodd;clip-rule:evenodd;fill:#FFFFFF;" d="M29.7,34.1h-9.1V31c-1.8,2.5-4.4,3.8-8.1,3.8
	c-4.4,0-8.6-2.7-8.6-8.4v-17h9.5v13.1c0,2.8,0.3,4.8,3.1,4.8c1.5,0,3.7-0.8,3.7-4.8V9.4h9.5V34.1L29.7,34.1z"/>
<path style="fill-rule:evenodd;clip-rule:evenodd;fill:#FFFFFF;" d="M47.4,16.6c-0.1-0.8-0.4-1.4-1.1-1.8C45.7,14.2,45,14,44.1,14
	c-1.2,0-2.8,0.3-2.8,2c0,0.8,0.6,1.1,1.1,1.3c1.6,0.7,5.2,0.8,8.4,2c3,1,5.8,2.8,5.8,6.8c0,6.9-6.5,8.8-12.6,8.8
	c-5.9,0-12.2-2.4-12.4-8.8h9c0.1,0.9,0.5,1.6,1.3,2.2c0.4,0.3,1.3,0.7,2.5,0.7c1.2,0,3.2-0.4,3.2-1.9c0-1.5-0.9-1.8-5.3-2.6
	c-7.2-1.3-10.1-3.6-10.1-7.8c0-6.3,6.8-7.9,11.7-7.9c5.4,0,11.9,1.5,12.1,7.8H47.4L47.4,16.6z"/>
<path style="fill-rule:evenodd;clip-rule:evenodd;fill:#105293;" d="M63,0.1h9.4v11.9h0.1c1.5-2,4-3.3,6.8-3.3
	c8.3,0,10.6,7,10.6,12.8c0,6.2-3.4,13.2-10.4,13.2c-4.6,0-6.1-1.8-7.3-3.4h-0.1v2.7H63V0.1L63,0.1z M76.2,15.7
	c-3.4,0-4.1,3.1-4.1,6.1c0,2.9,0.8,6.2,4.1,6.2c3.4,0,4.2-3.3,4.2-6.2C80.4,18.8,79.6,15.7,76.2,15.7L76.2,15.7z"/>
<path style="fill-rule:evenodd;clip-rule:evenodd;fill:#105293;" d="M116.2,28.6c0,2,0.1,4,1.1,5.5h-9.6c-0.2-0.6-0.4-1.7-0.3-2.4
	h-0.1c-2,2.4-5,3.1-8,3.1c-4.7,0-8.7-2.4-8.7-7.5c0-7.7,9.1-7.5,14-8.4c1.3-0.2,2.6-0.6,2.6-2.2c0-1.7-1.5-2.4-3.1-2.4
	c-2.9,0-3.5,1.5-3.5,2.6h-8.8c0.2-7,6.8-8.1,12.7-8.1c11.9,0,11.7,4.9,11.7,9.7V28.6L116.2,28.6z M107.2,23c-1.3,0.6-2.4,1-3.7,1.2
	c-2.2,0.5-3.3,1-3.3,2.7c0,1.1,1.3,2.2,2.9,2.2c2.2,0,3.8-1.2,4-3.8V23L107.2,23z"/>
<path style="fill-rule:evenodd;clip-rule:evenodd;fill:#105293;" d="M119.6,9.4h9.1v3.1h0.1c1.8-2.4,4.3-3.7,8.1-3.7
	c4.4,0,8.4,2.7,8.4,8.4v17H136V21.2c0-2.9-0.3-4.9-3.1-4.9c-1.7,0-3.8,0.8-3.8,4.7v13.1h-9.4V9.4L119.6,9.4z"/>
<polygon style="fill-rule:evenodd;clip-rule:evenodd;fill:#105293;" points="148.8,0.1 158.2,0.1 158.2,16.6 164.2,9.4 174.9,9.4 
	166.1,18.7 176.3,34.1 164.9,34.1 159.9,25.3 158.2,27.1 158.2,34.1 148.8,34.1 148.8,0.1 "/>
<path style="fill-rule:evenodd;clip-rule:evenodd;fill:#105293;" d="M180.6,30.8c0.3,0.3,0.4,0.8,0.4,1.3c0,0.5-0.1,0.9-0.4,1.3
	c-0.5,0.5-0.8,0.6-1.4,0.6c-0.4,0-0.9-0.1-1.2-0.6c-0.5-0.3-0.6-0.8-0.6-1.3c0-0.6,0.1-1,0.6-1.3c0.3-0.3,0.8-0.6,1.2-0.6
	C179.7,30.2,180.1,30.4,180.6,30.8L180.6,30.8z M180.8,30.6c-0.4-0.3-1-0.6-1.6-0.6c-0.6,0-1.1,0.2-1.5,0.6c-0.4,0.4-0.6,1-0.6,1.5
	c0,0.6,0.2,1.1,0.6,1.5c0.3,0.5,0.9,0.7,1.5,0.7c0.6,0,1.2-0.2,1.6-0.7c0.3-0.3,0.6-0.9,0.6-1.5C181.3,31.6,181.1,31,180.8,30.6
	L180.8,30.6z M179.5,32c-0.1,0-0.2,0-0.4,0h-0.3v-0.8h0.3c0.2,0,0.4,0,0.6,0.1c0.1,0,0.1,0.1,0.1,0.3
	C179.7,31.8,179.7,31.9,179.5,32L179.5,32z M178.3,33.2h0.4v-0.8h0.3c0.2,0,0.3,0,0.4,0.1c0.1,0,0.2,0.2,0.2,0.5v0.2v0.1l0,0l0,0
	h0.5c-0.1,0-0.1-0.1-0.1-0.1c0-0.1,0-0.1,0-0.2v-0.1c0-0.1,0-0.2-0.1-0.3c-0.1-0.2-0.3-0.2-0.3-0.2c0.1-0.1,0.2-0.1,0.3-0.2
	c0.1,0,0.2-0.3,0.2-0.5c0-0.2-0.1-0.4-0.5-0.6c-0.1,0-0.3-0.1-0.6-0.1h-0.8V33.2L178.3,33.2z"/>
</svg>
