<?xml version="1.0" encoding="utf-8"?>
<!-- Generator: Adobe Illustrator 23.0.0, SVG Export Plug-In . SVG Version: 6.00 Build 0)  -->
<svg version="1.1" id="Layer_1" xmlns="http://www.w3.org/2000/svg" xmlns:xlink="http://www.w3.org/1999/xlink" x="0px" y="0px"
	 viewBox="0 0 468.6 69.9" style="enable-background:new 0 0 468.6 69.9;" xml:space="preserve">
<title>Sefer Design Co.</title>
<path d="M26.6,16.3c-2.8-3.7-6.1-4.1-7.8-4.1c-5,0-6.6,3.2-6.6,5.6c0,1.2,0.4,2.2,1.5,3.2c1.2,1.1,2.7,1.7,5.8,2.7
	c3.7,1.3,7.3,2.6,9.7,4.8c2.2,1.9,4.1,5.2,4.1,10.1c0,9.4-6.8,15.8-16.7,15.8c-8.9,0-14-5.4-16.6-9.1l6.1-5.8
	c2.3,4.7,6.7,6.4,10.1,6.4c4.2,0,7.4-2.6,7.4-6.6c0-1.7-0.6-3.1-1.9-4.3c-1.8-1.7-4.7-2.6-7.4-3.5c-2.5-0.9-5.5-2-8-4.2
	c-1.6-1.4-3.8-4-3.8-8.9c0-7.1,4.8-14.1,15.4-14.1c3,0,8.7,0.6,13.6,5.6L26.6,16.3z M70.8,44.6c-0.9,2.3-4.5,9.7-15.3,9.7
	c-5,0-8.9-1.4-12-4.4c-3.5-3.2-4.9-7.3-4.9-12.2c0-6.2,2.5-10,4.8-12.2c3.7-3.6,8-4.4,11.7-4.4c6.3,0,10,2.5,12.2,5.1
	c3.3,4,3.7,8.9,3.7,12.2v0.7H47.7c0,1.9,0.5,3.9,1.5,5.3c0.9,1.3,2.9,3,6.3,3c3.3,0,5.8-1.6,7.3-4.1L70.8,44.6z M62.7,33.6
	c-0.7-4.2-4.2-6.3-7.4-6.3s-6.6,2.1-7.3,6.3H62.7z M86.7,29.7v23.7h-8.8V29.7h-3.3v-7.5h3.3v-8.6c0-2.9,0.2-7.8,4.1-11
	C83.9,1,86.5,0,89.7,0c1.9,0,3.5,0.4,5,1.1v8c-1.2-0.9-2.4-1.3-4-1.3c-1.2,0-2.3,0.3-3.2,1.6c-0.7,1.2-0.9,2.8-0.9,5.4v7.4h8.1v7.5
	H86.7z M129.4,44.6c-0.9,2.3-4.5,9.7-15.3,9.7c-5,0-8.9-1.4-12-4.4c-3.5-3.2-4.9-7.3-4.9-12.2c0-6.2,2.5-10,4.8-12.2
	c3.7-3.6,8-4.4,11.7-4.4c6.3,0,10,2.5,12.2,5.1c3.3,4,3.7,8.9,3.7,12.2v0.7h-23.3c0,1.9,0.5,3.9,1.5,5.3c0.9,1.3,2.9,3,6.3,3
	c3.3,0,5.8-1.6,7.3-4.1L129.4,44.6z M121.3,33.6c-0.7-4.2-4.2-6.3-7.4-6.3s-6.6,2.1-7.3,6.3C106.6,33.6,121.3,33.6,121.3,33.6z
	 M136.4,22.2h8.8v4.7c1.4-2.7,3.2-4,3.9-4.3c1.4-0.9,3.1-1.4,5.2-1.4c1.5,0,2.7,0.4,3.7,0.7l-1.2,8.2c-1.2-0.8-2.3-1.2-4.1-1.2
	c-1.7,0-4.1,0.4-5.8,2.5s-1.7,4.8-1.7,6.9v15h-8.8L136.4,22.2L136.4,22.2z M176.1,5.3c6.7,0,12.5,0.7,17.9,4.7
	c5.8,4.4,9.2,11.4,9.2,19.4s-3.3,14.9-9.6,19.4c-5.6,4-10.9,4.6-17.6,4.6h-12.4v-48L176.1,5.3L176.1,5.3z M172.9,45.3h2.9
	c2.4,0,7.6-0.1,11.7-3.2c3.8-2.7,6-7.6,6-12.7c0-5-2.1-9.9-5.9-12.8c-3.9-2.9-8.6-3.2-11.8-3.2h-2.9V45.3z M241.1,44.6
	c-0.9,2.3-4.5,9.7-15.3,9.7c-5,0-8.9-1.4-12-4.4c-3.5-3.2-4.9-7.3-4.9-12.2c0-6.2,2.5-10,4.8-12.2c3.7-3.6,8-4.4,11.7-4.4
	c6.3,0,10,2.5,12.2,5.1c3.3,4,3.7,8.9,3.7,12.2v0.7H218c0,1.9,0.5,3.9,1.5,5.3c0.9,1.3,2.9,3,6.3,3c3.3,0,5.8-1.6,7.3-4.1
	L241.1,44.6z M233.1,33.6c-0.7-4.2-4.2-6.3-7.4-6.3s-6.6,2.1-7.3,6.3H233.1z M265.1,29.6c-2.1-1.9-4.2-2.1-5.1-2.1
	c-2.1,0-3.4,1-3.4,2.5c0,0.8,0.4,2,2.8,2.8l2.1,0.6c2.4,0.8,6.1,2,7.9,4.5c0.9,1.3,1.6,3.2,1.6,5.2c0,2.8-0.9,5.6-3.5,7.9
	c-2.5,2.3-5.5,3.3-9.4,3.3c-6.5,0-10.2-3.1-12.1-5.2l4.6-5.3c1.7,2,4.3,3.6,6.9,3.6c2.4,0,4.3-1.2,4.3-3.4c0-1.9-1.6-2.7-2.7-3.2
	l-2-0.7c-2.2-0.8-4.8-1.8-6.7-3.7c-1.4-1.5-2.4-3.5-2.4-6c0-3,1.4-5.5,3.2-7.1c2.4-1.9,5.6-2.2,8.1-2.2c2.3,0,6,0.3,9.9,3.3
	L265.1,29.6L265.1,29.6z M281.6,3.7c2.9,0,5.3,2.4,5.3,5.3s-2.4,5.3-5.3,5.3s-5.3-2.4-5.3-5.3S278.7,3.7,281.6,3.7z M286,22.2v31.2
	h-8.8V22.2H286z M318.1,22.2h8.8v29.7c0,4.8-0.4,9.7-4.3,13.6c-2.2,2.2-5.9,4.4-12.3,4.4c-6,0-9.6-1.8-11.7-3.6
	c-2.4-2.1-4.3-5.8-5-9.3h9.5c0.4,1.4,1.2,2.9,2.2,3.7c1.7,1.6,4.1,1.7,5.3,1.7c2.5,0,4.2-0.9,5.3-1.9c2-1.9,2.2-4.4,2.2-6.9v-4.4
	c-3,4.6-7.2,5.2-9.6,5.2c-4.2,0-7.8-1.3-10.8-4.2c-2.3-2.3-5-6.3-5-12.4c0-4.9,1.8-9.4,4.8-12.4c2.7-2.7,6.6-4.2,10.7-4.2
	c5.8,0,8.6,3.2,9.8,5v-4L318.1,22.2z M304.6,31.1c-1.4,1.3-2.8,3.4-2.8,6.6c0,2.7,1,4.8,2.3,6.1c1.9,2,4.2,2.7,6.3,2.7
	c2.2,0,4.3-0.8,5.8-2.2c1.8-1.7,2.8-4.2,2.8-6.7c0-3-1.3-5-2.5-6.3c-1.7-1.8-3.7-2.5-6.1-2.5C307.7,28.9,305.7,30.1,304.6,31.1
	L304.6,31.1z M335.2,22.2h8.8v4c1.7-2.3,4.6-5,9.6-5c2.7,0,6.8,0.8,9.2,3.8c2.2,2.7,2.4,5.8,2.4,8.8v19.6h-8.8v-17
	c0-1.7-0.1-4.5-1.7-6.1c-1.4-1.4-3.2-1.6-4.1-1.6c-2.3,0-4.1,0.8-5.4,2.7c-1.3,2-1.4,4.2-1.4,6v15.9H335V22.2H335.2z M409.8,51.6
	c-2.9,1.5-6.7,2.8-11.9,2.8c-8.4,0-13.5-2.9-17.6-6.7c-5.5-5.3-7.7-11.3-7.7-18.4c0-8.7,3.6-15,7.7-18.8c4.8-4.5,10.8-6.3,17.6-6.3
	c3.4,0,7.4,0.6,11.8,3v10.9c-4.4-5-9.9-5.4-11.6-5.4c-9.6,0-15.9,7.9-15.9,16.8c0,10.7,8.2,16.4,16.3,16.4c4.5,0,8.4-1.9,11.2-5.3
	v11H409.8z M446,25.6c3.1,2.8,5.3,7.1,5.3,12.2c0,5-2.2,9.4-5.3,12.2c-2.7,2.4-6.7,4.4-12.6,4.4s-9.9-1.9-12.6-4.4
	c-3.1-2.8-5.3-7.1-5.3-12.2s2.2-9.4,5.3-12.2c2.7-2.4,6.7-4.4,12.6-4.4S443.4,23.1,446,25.6z M442.2,37.8c0-4.9-3.7-8.9-8.8-8.9
	c-5,0-8.8,4-8.8,8.9c0,4.8,3.7,8.8,8.8,8.8S442.2,42.6,442.2,37.8z M463,43.1c3.2,0,5.6,2.4,5.6,5.6c0,3.2-2.4,5.6-5.6,5.6
	s-5.6-2.4-5.6-5.6C457.3,45.5,459.8,43.1,463,43.1z"/>
</svg>
