<?xml version="1.0" encoding="utf-8"?>
<!-- Generator: Adobe Illustrator 21.0.0, SVG Export Plug-In . SVG Version: 6.00 Build 0)  -->
<svg version="1.1" id="Layer_1" xmlns="http://www.w3.org/2000/svg" xmlns:xlink="http://www.w3.org/1999/xlink" x="0px" y="0px"
	 viewBox="0 0 2500 464.6" style="enable-background:new 0 0 2500 464.6;" xml:space="preserve">
<style type="text/css">
	.st0{fill:#0659A5;}
	.st1{fill:#010101;}
</style>
<path class="st0" d="M2201.5,0c-9.1,0-16.4,7.3-16.4,16.4v115h303.8L2350.5,0L2201.5,0 M2500,166.2c0-9-7.3-16.4-16.4-16.4
	c0,0,0,0-0.1,0h-115v303.8l131.3-138.4L2500,166.2 M2333.8,464.6c9,0,16.4-7.4,16.4-16.4v-115h-303.8l138.3,131.4L2333.8,464.6
	 M2035.2,298.5c0,9.1,7.3,16.4,16.4,16.4l0,0h115V11.1l-131.4,138.4L2035.2,298.5"/>
<path class="st1" d="M642.7,55.4v140.3H447.3V55.4l-71.2,0v353.7h71.2v-152h195.5v152H714V55.4H642.7 M1589.8,55.4v353.7l312.4,0
	l-39.6-62.2h-201.4v-89.7h195v-60h-195v-81h201l38.8-60.8H1589.8 M111.5,55.4C37.4,55.4,0,100.4,0,165.9V298
	c0,75.8,48.2,111.2,111.1,111.2l223.3,0L293,344.5H124.9c-35.7,0-51.3-12.9-51.3-52.9V171.8c0-38.7,13.1-53.7,52.2-53.7h169
	l39.7-62.6L111.5,55.4 M1277.4,55.3c-42.8,0-86.6,25.7-86.6,91.8v17c0,68.9,42.2,95.2,84.4,95.4h148.1c15.4,0,27.9,2.5,27.9,28.6
	l0,30.1c-0.4,23.3-12.1,28.7-28.4,28.7h-194.9l-39.9,62.2h239.3c57.7,0,96.9-28.7,96.9-95.1v-24.4c0-64.1-36.4-94.4-92.9-94.4H1290
	c-15.7,0-26.6-4.3-26.6-27.5l0-24.4c0-19.8,7.5-27,25.8-27l185.6-0.1l38.8-60.9L1277.4,55.3 M920.9,55.5L753.2,409.1h79.3l32.7-73
	h182.3l32.6,73h79.6L991.4,55.5L920.9,55.5 M956.1,128.9l64.5,147H892L956.1,128.9z"/>
</svg>
