<?xml version="1.0" encoding="utf-8"?>
<!-- Generator: Adobe Illustrator 23.0.0, SVG Export Plug-In . SVG Version: 6.00 Build 0)  -->
<svg version="1.1" id="Layer_1" xmlns="http://www.w3.org/2000/svg" xmlns:xlink="http://www.w3.org/1999/xlink" x="0px" y="0px"
	 viewBox="0 0 1305.49 533.3" style="enable-background:new 0 0 1305.49 533.3;" xml:space="preserve">
<g>
	<path style="fill:#FFFFFF;" d="M252.78,123.31c-4.62-11.56-11.56-22.35-23.12-32.37c-16.18-13.1-33.14-18.5-55.49-18.5
		c-47.78,0-72.44,28.51-72.44,61.65c0,15.41,5.39,42.39,55.49,62.42l51.63,20.81c94.79,38.53,120.99,92.48,120.99,151.05
		c0,97.87-69.36,164.92-165.69,164.92c-59.34,0-94.79-22.35-120.99-51.63C15.41,450.84,3.08,416.93,0,381.48l77.84-16.95
		c0,25.43,9.25,49.32,21.58,65.51c14.64,18.5,36.22,30.83,67.05,30.83c47.78,0,84.77-34.68,84.77-86.31
		c0-52.41-40.07-73.98-73.98-87.86l-49.32-20.81C85.54,248.15,23.12,212.7,23.12,135.64C23.12,66.28,77.07,0,173.4,0
		c55.49,0,87.08,20.81,103.27,34.68c13.87,12.33,28.51,30.06,39.3,51.63L252.78,123.31z"/>
	<path style="fill:#FFFFFF;" d="M536.38,9.25c71.67,0,134.09,7.71,191.12,50.09c62.42,47.01,98.64,121.76,98.64,207.31
		s-35.45,159.53-103.27,207.31c-60.11,42.39-116.37,49.32-188.04,49.32H428.48V9.25H536.38z M507.09,449.29H541
		c38.53,0,91.71-3.08,136.41-36.22c35.45-26.97,70.13-76.3,70.13-146.43c0-67.82-32.37-120.99-69.36-147.97
		C633.48,86.31,578.76,83.23,541,83.23h-33.91V449.29z"/>
	<path style="fill:#FFFFFF;" d="M1305.49,129.47c-57.03-51.63-110.21-57.03-139.49-57.03c-111.75,0-187.27,82.46-187.27,195.75
		c0,108.66,78.61,192.67,188.04,192.67c61.65,0,109.43-31.6,138.72-59.34v93.25c-51.63,30.83-105.58,38.53-141.03,38.53
		c-93.25,0-151.82-42.39-181.88-70.9c-60.11-56.26-82.46-121.76-82.46-194.21c0-94.79,39.3-160.3,82.46-201.14
		C1035.76,16.95,1097.42,0,1168.32,0c47.01,0,92.48,8.48,137.18,36.99V129.47z"/>
</g>
</svg>
